<svg width="400" height="400" viewBox="0 0 400 400" fill="none" xmlns="http://www.w3.org/2000/svg">
<circle cx="200" cy="200" r="200" fill="#4E31AA"/>
<path fill-rule="evenodd" clip-rule="evenodd" d="M171 305C234.513 305 286 253.513 286 190C286 126.487 234.513 75 171 75C107.487 75 56 126.487 56 190C56 253.513 107.487 305 171 305ZM171 273C216.84 273 254 235.84 254 190C254 144.16 216.84 107 171 107C125.16 107 88 144.16 88 190C88 235.84 125.16 273 171 273Z" fill="white"/>
<circle cx="259" cy="240" r="84" fill="white"/>
<path fill-rule="evenodd" clip-rule="evenodd" d="M281.811 159.134C274.557 157.092 266.906 156 259 156C254.964 156 250.994 156.285 247.109 156.835C251.541 166.993 254 178.209 254 190C254 232.299 222.359 267.207 181.455 272.348C186.007 283.248 192.79 292.984 201.234 300.984C250.079 287.71 286 243.05 286 190C286 179.308 284.541 168.956 281.811 159.134Z" fill="#0F2B65"/>
</svg>
